<svg xmlns="http://www.w3.org/2000/svg" stroke-width="0.3" stroke-dasharray="none" fill="black" stroke="black" font-family="Arial, sans-serif" font-size="10pt" font-weight="normal" font-style="normal" width="500" height="200" viewBox="0 0 500 200" style="width: 500px; height: 200px;"><g class="vf-stave" id="vf-auto1041" stroke-width="1" fill="#999999" stroke="#999999"><path fill="none" d="M10 50L210.485 50"/><path fill="none" d="M10 60L210.485 60"/><path fill="none" d="M10 70L210.485 70"/><path fill="none" d="M10 80L210.485 80"/><path fill="none" d="M10 90L210.485 90"/></g><g class="vf-stavebarline" id="vf-auto1042"/><g class="vf-stavebarline" id="vf-auto1043"><rect x="210.485" y="49.5" width="1" height="41" stroke="none"/></g><g class="vf-clef" id="vf-auto1044"><path stroke="none" d="M30.191 63.208C30.135 62.731,30.191 62.703,30.444 62.45C34.824 58.378,38.138 53.24,38.138 47.034C38.138 43.524,37.155 40.042,35.498 37.627C34.881 36.729,33.842 35.606,33.392 35.606C32.831 35.606,31.567 36.644,30.781 37.543C27.776 40.856,26.794 45.911,26.794 50.123C26.794 52.454,27.102 55.093,27.383 56.75C27.468 57.227,27.496 57.311,27.018 57.733C21.178 62.534,15 68.319,15 76.49C15 83.51,19.802 90.193,29.714 90.193C30.641 90.193,31.708 90.109,32.522 89.94C32.943 89.856,33.027 89.828,33.112 90.305C33.589 93.029,34.207 96.539,34.207 98.449C34.207 104.43,30.163 105.16,27.776 105.16C25.586 105.16,24.547 104.514,24.547 103.98C24.547 103.7,24.912 103.587,25.839 103.278C27.102 102.913,28.535 101.846,28.535 99.488C28.535 97.269,27.131 95.36,24.66 95.36C21.964 95.36,20.335 97.522,20.335 100.021C20.335 102.632,21.908 106.62,28.029 106.62C30.725 106.62,35.976 105.384,35.976 98.533C35.976 96.202,35.246 92.383,34.824 89.856C34.74 89.379,34.768 89.435,35.33 89.182C39.43 87.554,42.125 84.128,42.125 79.551C42.125 74.384,38.334 69.807,32.382 69.807C31.343 69.807,31.343 69.807,31.202 69.077M34.01 41.867C35.33 41.867,36.425 42.962,36.425 45.181C36.425 49.674,32.578 53.324,29.405 56.104C29.124 56.357,28.956 56.3,28.872 55.767C28.703 54.728,28.619 53.352,28.619 52.06C28.619 45.742,31.539 41.867,34.01 41.867M29.602 69.414C29.714 70.172,29.714 70.144,28.984 70.369C25.446 71.576,23.115 74.777,23.115 78.231C23.115 81.853,25.025 84.437,27.776 85.391C28.113 85.504,28.591 85.616,28.872 85.616C29.18 85.616,29.349 85.419,29.349 85.167C29.349 84.886,29.04 84.774,28.759 84.661C27.046 83.931,25.839 82.19,25.839 80.337C25.839 78.006,27.411 76.293,29.882 75.591C30.528 75.423,30.612 75.479,30.697 75.928L32.718 87.975C32.803 88.424,32.747 88.424,32.157 88.536C31.511 88.649,30.697 88.733,29.882 88.733C22.806 88.733,18.229 84.802,18.229 79.186C18.229 76.799,18.65 73.598,21.992 69.807C24.435 67.111,26.288 65.595,28.17 64.079C28.591 63.742,28.675 63.798,28.759 64.219M32.382 75.844C32.297 75.339,32.353 75.226,32.831 75.283C36.116 75.563,38.812 78.315,38.812 81.853C38.812 84.409,37.267 86.458,35.021 87.61C34.544 87.834,34.459 87.834,34.375 87.357"/></g><g class="vf-timesignature" id="vf-auto1045"><path stroke="none" d="M71.755 63.005L71.755 54.328C71.755 54.019,71.727 53.654,71.278 53.654C70.913 53.654,70.716 53.738,70.463 54.019L66.616 58.652C66.476 58.877,66.251 59.101,66.251 59.607L66.251 63.005L60.804 63.005C64.033 60.253,70.519 51.071,70.632 50.565L70.66 50.453C70.66 50.088,70.379 49.863,70.07 49.863C69.705 49.863,68.048 49.919,67.318 49.919C66.588 49.919,64.763 49.863,64.454 49.863C64.089 49.863,63.528 49.975,63.528 50.621C63.528 55.62,59.54 61.264,58.333 62.948L58.108 63.285C58.108 63.285,58.108 63.313,58.108 63.313L58.052 63.37C57.968 63.566,57.94 63.707,57.94 63.847C57.94 64.24,58.248 64.521,58.754 64.521L66.251 64.521L66.251 67.076C66.251 68.171,65.381 68.48,64.651 68.48C64.005 68.48,63.724 68.845,63.724 69.266C63.724 69.66,63.864 70.109,64.482 70.109L73.103 70.109C73.496 70.109,73.917 69.828,73.917 69.266C73.917 68.705,73.412 68.452,73.019 68.452C72.625 68.452,71.755 68.199,71.755 66.908L71.755 64.521L74.703 64.521C75.125 64.521,75.321 64.24,75.321 63.763C75.321 63.285,75.153 63.005,74.703 63.005"/><path stroke="none" d="M71.755 83.005L71.755 74.328C71.755 74.019,71.727 73.654,71.278 73.654C70.913 73.654,70.716 73.738,70.463 74.019L66.616 78.652C66.476 78.877,66.251 79.101,66.251 79.607L66.251 83.005L60.804 83.005C64.033 80.253,70.519 71.071,70.632 70.565L70.66 70.453C70.66 70.088,70.379 69.863,70.07 69.863C69.705 69.863,68.048 69.919,67.318 69.919C66.588 69.919,64.763 69.863,64.454 69.863C64.089 69.863,63.528 69.975,63.528 70.621C63.528 75.62,59.54 81.264,58.333 82.948L58.108 83.285C58.108 83.285,58.108 83.313,58.108 83.313L58.052 83.37C57.968 83.566,57.94 83.707,57.94 83.847C57.94 84.24,58.248 84.521,58.754 84.521L66.251 84.521L66.251 87.076C66.251 88.171,65.381 88.48,64.651 88.48C64.005 88.48,63.724 88.845,63.724 89.266C63.724 89.66,63.864 90.109,64.482 90.109L73.103 90.109C73.496 90.109,73.917 89.828,73.917 89.266C73.917 88.705,73.412 88.452,73.019 88.452C72.625 88.452,71.755 88.199,71.755 86.908L71.755 84.521L74.703 84.521C75.125 84.521,75.321 84.24,75.321 83.763C75.321 83.285,75.153 83.005,74.703 83.005"/></g><g class="vf-stavenote" id="vf-auto1001"><g class="vf-stem" id="vf-auto1002" pointer-events="bounding-box"><path stroke-width="1.5" fill="none" d="M113.772 63L113.772 30"/></g><g class="vf-notehead" id="vf-auto1005" pointer-events="bounding-box"><path stroke="none" d="M106.519 70.054C110.113 70.054,114.522 66.741,114.522 63.315C114.522 61.237,112.893 59.946,110.59 59.946C106.154 59.946,102.588 63.231,102.588 66.685C102.588 68.791,104.328 70.054,106.519 70.054"/><path stroke="none" d="M99.082 60.226C99.363 60.114,99.588 59.777,99.588 59.552L99.588 56.66C99.588 56.464,99.447 56.351,99.279 56.351C99.222 56.351,99.166 56.351,99.082 56.379C99.082 56.379,98.268 56.716,98.071 56.744C97.79 56.744,97.51 56.548,97.51 56.239L97.51 51.297C97.51 51.044,97.257 50.848,96.948 50.848C96.555 50.848,96.302 51.044,96.302 51.297L96.302 56.548C96.246 56.941,96.134 57.475,95.769 57.727C95.291 58.008,93.915 58.57,93.213 58.738C92.876 58.738,92.736 58.261,92.736 57.924L92.736 53.066C92.736 52.841,92.455 52.617,92.174 52.617C91.781 52.617,91.529 52.841,91.529 53.066L91.529 58.542C91.529 59.103,91.276 59.496,91.051 59.609C90.798 59.749,89.984 60.058,89.984 60.058C89.703 60.142,89.507 60.479,89.507 60.704L89.507 63.596C89.507 63.821,89.619 63.961,89.872 63.961L89.956 63.905C89.984 63.905,90.602 63.652,90.911 63.512L90.967 63.456C91.276 63.456,91.529 63.877,91.529 64.186L91.529 68.201C91.529 68.65,91.332 69.015,91.079 69.128C90.855 69.212,89.984 69.577,89.984 69.577C89.703 69.661,89.507 69.97,89.507 70.223L89.507 73.087C89.507 73.34,89.619 73.452,89.872 73.452L89.956 73.424C89.984 73.424,90.546 73.171,90.911 73.059C90.967 73.003,90.995 73.003,91.051 73.003C91.332 73.003,91.529 73.452,91.529 73.649L91.529 78.619C91.529 78.872,91.781 79.068,92.062 79.068C92.455 79.068,92.736 78.872,92.736 78.619L92.736 73.003C92.736 72.469,92.933 72.188,93.157 72.104L95.6 71.093C95.6 71.093,95.656 71.093,95.656 71.093L95.741 71.065C96.106 71.065,96.302 71.543,96.302 71.795L96.302 76.85C96.302 77.102,96.555 77.299,96.836 77.299C97.257 77.299,97.51 77.102,97.51 76.85L97.51 71.093C97.51 70.784,97.678 70.307,97.959 70.167C98.24 70.054,99.082 69.717,99.082 69.717C99.363 69.605,99.588 69.296,99.588 69.044L99.588 66.179C99.588 65.983,99.447 65.842,99.279 65.842C99.222 65.842,99.166 65.842,99.082 65.899L98.043 66.292C97.79 66.292,97.51 66.039,97.51 65.562L97.51 61.799C97.51 61.518,97.706 60.76,98.043 60.62M96.302 66.825C96.049 67.64,94.168 68.426,93.213 68.426C92.989 68.426,92.792 68.37,92.736 68.229C92.652 68.061,92.624 67.19,92.624 66.207C92.624 64.972,92.652 63.54,92.736 63.231C92.82 62.529,94.674 61.687,95.684 61.687C95.965 61.687,96.218 61.771,96.302 61.939C96.386 62.136,96.471 63.147,96.471 64.242C96.471 65.337,96.386 66.46,96.302 66.825"/></g></g><g class="vf-stavenote" id="vf-auto1008"><g class="vf-stem" id="vf-auto1009" pointer-events="bounding-box"><path stroke-width="1.5" fill="none" d="M140.873 68L140.873 35"/></g><g class="vf-notehead" id="vf-auto1012" pointer-events="bounding-box"><path stroke="none" d="M133.62 75.054C137.215 75.054,141.623 71.741,141.623 68.315C141.623 66.237,139.995 64.946,137.692 64.946C133.255 64.946,129.689 68.231,129.689 71.685C129.689 73.791,131.43 75.054,133.62 75.054"/></g></g><g class="vf-stavenote" id="vf-auto1013"><g class="vf-stem" id="vf-auto1014" pointer-events="bounding-box"><path stroke-width="1.5" fill="none" d="M170.888 73L170.888 40"/></g><g class="vf-notehead" id="vf-auto1017" pointer-events="bounding-box"><path stroke="none" d="M163.635 80.054C167.229 80.054,171.638 76.741,171.638 73.315C171.638 71.237,170.009 69.946,167.707 69.946C163.27 69.946,159.704 73.231,159.704 76.685C159.704 78.791,161.445 80.054,163.635 80.054"/></g></g><g class="vf-stavenote" id="vf-auto1018"><g class="vf-stem" id="vf-auto1019" pointer-events="bounding-box"><path stroke-width="1.5" fill="none" d="M198.903 78L198.903 45"/></g><g class="vf-notehead" id="vf-auto1022" pointer-events="bounding-box"><path stroke="none" d="M191.65 85.054C195.244 85.054,199.653 81.741,199.653 78.315C199.653 76.237,198.024 74.946,195.721 74.946C191.285 74.946,187.719 78.231,187.719 81.685C187.719 83.791,189.46 85.054,191.65 85.054"/><path stroke="none" d="M184.213 75.226C184.494 75.114,184.719 74.777,184.719 74.552L184.719 71.66C184.719 71.464,184.578 71.351,184.41 71.351C184.354 71.351,184.297 71.351,184.213 71.379C184.213 71.379,183.399 71.716,183.202 71.744C182.921 71.744,182.641 71.548,182.641 71.239L182.641 66.297C182.641 66.044,182.388 65.848,182.079 65.848C181.686 65.848,181.433 66.044,181.433 66.297L181.433 71.548C181.377 71.941,181.265 72.475,180.9 72.727C180.422 73.008,179.046 73.57,178.344 73.738C178.007 73.738,177.867 73.261,177.867 72.924L177.867 68.066C177.867 67.841,177.586 67.617,177.305 67.617C176.912 67.617,176.66 67.841,176.66 68.066L176.66 73.542C176.66 74.103,176.407 74.496,176.182 74.609C175.93 74.749,175.115 75.058,175.115 75.058C174.834 75.142,174.638 75.479,174.638 75.704L174.638 78.596C174.638 78.821,174.75 78.961,175.003 78.961L175.087 78.905C175.115 78.905,175.733 78.652,176.042 78.512L176.098 78.456C176.407 78.456,176.66 78.877,176.66 79.186L176.66 83.201C176.66 83.65,176.463 84.015,176.21 84.128C175.986 84.212,175.115 84.577,175.115 84.577C174.834 84.661,174.638 84.97,174.638 85.223L174.638 88.087C174.638 88.34,174.75 88.452,175.003 88.452L175.087 88.424C175.115 88.424,175.677 88.171,176.042 88.059C176.098 88.003,176.126 88.003,176.182 88.003C176.463 88.003,176.66 88.452,176.66 88.649L176.66 93.619C176.66 93.872,176.912 94.068,177.193 94.068C177.586 94.068,177.867 93.872,177.867 93.619L177.867 88.003C177.867 87.469,178.064 87.188,178.288 87.104L180.731 86.093C180.731 86.093,180.787 86.093,180.787 86.093L180.872 86.065C181.237 86.065,181.433 86.543,181.433 86.795L181.433 91.85C181.433 92.102,181.686 92.299,181.967 92.299C182.388 92.299,182.641 92.102,182.641 91.85L182.641 86.093C182.641 85.784,182.809 85.307,183.09 85.167C183.371 85.054,184.213 84.717,184.213 84.717C184.494 84.605,184.719 84.296,184.719 84.044L184.719 81.179C184.719 80.983,184.578 80.842,184.41 80.842C184.354 80.842,184.297 80.842,184.213 80.899L183.174 81.292C182.921 81.292,182.641 81.039,182.641 80.562L182.641 76.799C182.641 76.518,182.837 75.76,183.174 75.62M181.433 81.825C181.181 82.64,179.299 83.426,178.344 83.426C178.12 83.426,177.923 83.37,177.867 83.229C177.783 83.061,177.755 82.19,177.755 81.207C177.755 79.972,177.783 78.54,177.867 78.231C177.951 77.529,179.805 76.687,180.815 76.687C181.096 76.687,181.349 76.771,181.433 76.939C181.517 77.136,181.602 78.147,181.602 79.242C181.602 80.337,181.517 81.46,181.433 81.825"/></g></g><g class="vf-stavenote" id="vf-auto1026"><path stroke-width="1.4" fill="none" stroke="#444" d="M99.588 100L117.522 100"/><g class="vf-stem" id="vf-auto1027" pointer-events="bounding-box"><path stroke-width="1.5" fill="none" d="M103.338 102.65L103.338 135"/></g><g class="vf-notehead" id="vf-auto1030" pointer-events="bounding-box"><path stroke="none" d="M106.519 105.054C113.174 105.054,114.522 99.635,114.522 98.315C114.522 96.237,112.865 94.946,110.506 94.946C104.497 94.946,102.588 99.607,102.588 101.685C102.588 103.847,104.272 105.054,106.519 105.054M105.62 103.51C104.778 103.51,104.272 103.061,103.992 102.583C103.879 102.359,103.767 102.05,103.767 101.769C103.767 99.803,109.636 96.602,111.517 96.602C112.303 96.602,112.724 96.967,113.033 97.445C113.146 97.697,113.258 97.95,113.258 98.231C113.258 99.972,107.558 103.51,105.62 103.51"/><path stroke="none" d="M99.082 95.226C99.363 95.114,99.588 94.777,99.588 94.552L99.588 91.66C99.588 91.464,99.447 91.351,99.279 91.351C99.222 91.351,99.166 91.351,99.082 91.379C99.082 91.379,98.268 91.716,98.071 91.744C97.79 91.744,97.51 91.548,97.51 91.239L97.51 86.297C97.51 86.044,97.257 85.848,96.948 85.848C96.555 85.848,96.302 86.044,96.302 86.297L96.302 91.548C96.246 91.941,96.134 92.475,95.769 92.727C95.291 93.008,93.915 93.57,93.213 93.738C92.876 93.738,92.736 93.261,92.736 92.924L92.736 88.066C92.736 87.841,92.455 87.617,92.174 87.617C91.781 87.617,91.529 87.841,91.529 88.066L91.529 93.542C91.529 94.103,91.276 94.496,91.051 94.609C90.798 94.749,89.984 95.058,89.984 95.058C89.703 95.142,89.507 95.479,89.507 95.704L89.507 98.596C89.507 98.821,89.619 98.961,89.872 98.961L89.956 98.905C89.984 98.905,90.602 98.652,90.911 98.512L90.967 98.456C91.276 98.456,91.529 98.877,91.529 99.186L91.529 103.201C91.529 103.65,91.332 104.015,91.079 104.128C90.855 104.212,89.984 104.577,89.984 104.577C89.703 104.661,89.507 104.97,89.507 105.223L89.507 108.087C89.507 108.34,89.619 108.452,89.872 108.452L89.956 108.424C89.984 108.424,90.546 108.171,90.911 108.059C90.967 108.003,90.995 108.003,91.051 108.003C91.332 108.003,91.529 108.452,91.529 108.649L91.529 113.619C91.529 113.872,91.781 114.068,92.062 114.068C92.455 114.068,92.736 113.872,92.736 113.619L92.736 108.003C92.736 107.469,92.933 107.188,93.157 107.104L95.6 106.093C95.6 106.093,95.656 106.093,95.656 106.093L95.741 106.065C96.106 106.065,96.302 106.543,96.302 106.795L96.302 111.85C96.302 112.102,96.555 112.299,96.836 112.299C97.257 112.299,97.51 112.102,97.51 111.85L97.51 106.093C97.51 105.784,97.678 105.307,97.959 105.167C98.24 105.054,99.082 104.717,99.082 104.717C99.363 104.605,99.588 104.296,99.588 104.044L99.588 101.179C99.588 100.983,99.447 100.842,99.279 100.842C99.222 100.842,99.166 100.842,99.082 100.899L98.043 101.292C97.79 101.292,97.51 101.039,97.51 100.562L97.51 96.799C97.51 96.518,97.706 95.76,98.043 95.62M96.302 101.825C96.049 102.64,94.168 103.426,93.213 103.426C92.989 103.426,92.792 103.37,92.736 103.229C92.652 103.061,92.624 102.19,92.624 101.207C92.624 99.972,92.652 98.54,92.736 98.231C92.82 97.529,94.674 96.687,95.684 96.687C95.965 96.687,96.218 96.771,96.302 96.939C96.386 97.136,96.471 98.147,96.471 99.242C96.471 100.337,96.386 101.46,96.302 101.825"/></g></g><g class="vf-stavenote" id="vf-auto1033"><path stroke-width="1.4" fill="none" stroke="#444" d="M156.704 100L174.638 100"/><g class="vf-stem" id="vf-auto1034" pointer-events="bounding-box"><path stroke-width="1.5" fill="none" d="M160.454 102.65L160.454 135"/></g><g class="vf-notehead" id="vf-auto1037" pointer-events="bounding-box"><path stroke="none" d="M163.635 105.054C170.29 105.054,171.638 99.635,171.638 98.315C171.638 96.237,169.981 94.946,167.622 94.946C161.613 94.946,159.704 99.607,159.704 101.685C159.704 103.847,161.389 105.054,163.635 105.054M162.737 103.51C161.894 103.51,161.389 103.061,161.108 102.583C160.996 102.359,160.883 102.05,160.883 101.769C160.883 99.803,166.752 96.602,168.633 96.602C169.42 96.602,169.841 96.967,170.15 97.445C170.262 97.697,170.374 97.95,170.374 98.231C170.374 99.972,164.674 103.51,162.737 103.51"/><path stroke="none" d="M156.198 95.226C156.479 95.114,156.704 94.777,156.704 94.552L156.704 91.66C156.704 91.464,156.563 91.351,156.395 91.351C156.339 91.351,156.283 91.351,156.198 91.379C156.198 91.379,155.384 91.716,155.188 91.744C154.907 91.744,154.626 91.548,154.626 91.239L154.626 86.297C154.626 86.044,154.373 85.848,154.064 85.848C153.671 85.848,153.419 86.044,153.419 86.297L153.419 91.548C153.362 91.941,153.25 92.475,152.885 92.727C152.408 93.008,151.032 93.57,150.33 93.738C149.993 93.738,149.852 93.261,149.852 92.924L149.852 88.066C149.852 87.841,149.572 87.617,149.291 87.617C148.898 87.617,148.645 87.841,148.645 88.066L148.645 93.542C148.645 94.103,148.392 94.496,148.168 94.609C147.915 94.749,147.101 95.058,147.101 95.058C146.82 95.142,146.623 95.479,146.623 95.704L146.623 98.596C146.623 98.821,146.735 98.961,146.988 98.961L147.072 98.905C147.101 98.905,147.718 98.652,148.027 98.512L148.083 98.456C148.392 98.456,148.645 98.877,148.645 99.186L148.645 103.201C148.645 103.65,148.448 104.015,148.196 104.128C147.971 104.212,147.101 104.577,147.101 104.577C146.82 104.661,146.623 104.97,146.623 105.223L146.623 108.087C146.623 108.34,146.735 108.452,146.988 108.452L147.072 108.424C147.101 108.424,147.662 108.171,148.027 108.059C148.083 108.003,148.111 108.003,148.168 108.003C148.448 108.003,148.645 108.452,148.645 108.649L148.645 113.619C148.645 113.872,148.898 114.068,149.178 114.068C149.572 114.068,149.852 113.872,149.852 113.619L149.852 108.003C149.852 107.469,150.049 107.188,150.274 107.104L152.717 106.093C152.717 106.093,152.773 106.093,152.773 106.093L152.857 106.065C153.222 106.065,153.419 106.543,153.419 106.795L153.419 111.85C153.419 112.102,153.671 112.299,153.952 112.299C154.373 112.299,154.626 112.102,154.626 111.85L154.626 106.093C154.626 105.784,154.794 105.307,155.075 105.167C155.356 105.054,156.198 104.717,156.198 104.717C156.479 104.605,156.704 104.296,156.704 104.044L156.704 101.179C156.704 100.983,156.563 100.842,156.395 100.842C156.339 100.842,156.283 100.842,156.198 100.899L155.159 101.292C154.907 101.292,154.626 101.039,154.626 100.562L154.626 96.799C154.626 96.518,154.823 95.76,155.159 95.62M153.419 101.825C153.166 102.64,151.284 103.426,150.33 103.426C150.105 103.426,149.909 103.37,149.852 103.229C149.768 103.061,149.74 102.19,149.74 101.207C149.74 99.972,149.768 98.54,149.852 98.231C149.937 97.529,151.79 96.687,152.801 96.687C153.082 96.687,153.334 96.771,153.419 96.939C153.503 97.136,153.587 98.147,153.587 99.242C153.587 100.337,153.503 101.46,153.419 101.825"/></g></g></svg>